<?xml version="1.0" encoding="utf-8"?>
<svg version="1.1" id="d" xmlns="http://www.w3.org/2000/svg" xmlns:xlink="http://www.w3.org/1999/xlink" x="0px" y="0px"
 viewBox="0 0 471.4 472" style="enable-background:new 0 0 471.4 472;" xml:space="preserve">
<style type="text/css">
.mastr{fill:#956CFF;}
</style>
<g>
<polygon class="mastr" points="280.8,305.5 280.6,223.2 240.2,290.9 226.1,290.9 185.7,224.8 185.7,305.5 155.8,305.5 155.8,168.1 
182.1,168.1 233.6,253.5 284.2,168.1 310.5,168.1 310.7,305.5 "/>
<path class="mastr" d="M0,237.4c0.7,129,105.1,233.7,233.6,234.8l-43.1-43.1c-73.3-17.2-131-75.3-147.8-149L0,237.4z"/>
<path class="mastr" d="M234.3,0C105.1,0.7,0.3,106,0,235.5l42.6-42.8c16.7-74.3,75-132.9,149.1-149.8L234.3,0z"/>
<path class="mastr" d="M236.2,0l42.7,42.7c74.1,16.7,132.7,75.2,149.5,149.4l42.7,42.7C470.5,105.4,365.4,0.4,236.2,0"/>
<path class="mastr" d="M471.4,236.9l-42.7,42.8c-16.6,73.7-74.3,131.9-147.5,149.2l-43,43.1C366.7,470.7,470.9,365.9,471.4,236.9"/>
</g>
</svg>